<svg width="160" height="29" viewBox="0 0 160 29" fill="none" xmlns="http://www.w3.org/2000/svg">
<g id="appwrite-logo.15f58e4f.svg" clip-path="url(#clip0_90_62)">
<path id="Vector" fill-rule="evenodd" clip-rule="evenodd" d="M45.2741 6.66016C46.7696 6.66016 48.0442 7.04718 49.0982 7.82165C50.1522 8.59624 50.8769 9.62282 51.2725 10.9014V6.84759H53.1384V21.6038H51.2725V17.5502C50.8769 18.83 50.1522 19.857 49.0982 20.6315C48.0442 21.4061 46.7696 21.7933 45.2741 21.7933C43.9409 21.7933 42.7473 21.4869 41.6932 20.8745C40.6393 20.2622 39.8196 19.3838 39.234 18.2392C38.6485 17.0948 38.3555 15.7569 38.3555 14.2257C38.3555 12.6767 38.6485 11.3301 39.234 10.1856C39.8196 9.04224 40.6348 8.16895 41.6799 7.56517C42.7248 6.96161 43.9229 6.66016 45.2741 6.66016ZM45.7604 8.33472C44.1029 8.33472 42.7741 8.86158 41.7736 9.91574C40.7745 10.9698 40.2749 12.4065 40.2749 14.2257C40.2749 16.0452 40.7745 17.482 41.7736 18.5361C42.7741 19.5899 44.1029 20.1168 45.7604 20.1168C46.8052 20.1168 47.7466 19.8739 48.5836 19.3875C49.4217 18.9015 50.0794 18.2123 50.5568 17.3204C51.034 16.4285 51.2725 15.3971 51.2725 14.2257C51.2725 13.0545 51.034 12.0236 50.5568 11.1326C50.0794 10.241 49.4217 9.55115 48.5836 9.06423C47.7466 8.57786 46.8052 8.33472 45.7604 8.33472Z" fill="white"/>
<path id="Vector_2" fill-rule="evenodd" clip-rule="evenodd" d="M65.1354 6.66016C66.4867 6.66016 67.6803 6.96161 68.7162 7.56517C69.7523 8.16895 70.5632 9.04223 71.1488 10.1856C71.7343 11.3301 72.0271 12.6767 72.0271 14.2257C72.0271 15.7569 71.7343 17.0948 71.1488 18.2392C70.5632 19.3838 69.7475 20.2622 68.703 20.8745C67.658 21.4869 66.4687 21.7933 65.1354 21.7933C63.6219 21.7933 62.3429 21.4061 61.2979 20.6315C60.253 19.857 59.5326 18.83 59.1368 17.5502V28.5763H57.2441V6.84759H59.1368V10.9014C59.5326 9.62282 60.253 8.59624 61.2979 7.82165C62.3429 7.04718 63.6219 6.66016 65.1354 6.66016ZM64.6222 8.33472C63.5773 8.33472 62.6357 8.57786 61.7974 9.06423C60.9604 9.55115 60.3076 10.241 59.8394 11.1326C59.3712 12.0236 59.1368 13.0545 59.1368 14.2257C59.1368 15.3971 59.3712 16.4285 59.8394 17.3204C60.3076 18.2123 60.9604 18.9015 61.7974 19.3875C62.6357 19.8739 63.5773 20.1168 64.6222 20.1168C66.2975 20.1168 67.631 19.5899 68.6223 18.5361C69.6127 17.482 70.1077 16.0452 70.1077 14.2257C70.1077 12.4065 69.6127 10.9698 68.6223 9.91574C67.631 8.86158 66.2975 8.33472 64.6222 8.33472Z" fill="white"/>
<path id="Vector_3" fill-rule="evenodd" clip-rule="evenodd" d="M83.3225 6.66016C84.6739 6.66016 85.8676 6.96161 86.9035 7.56517C87.9396 8.16895 88.7506 9.04223 89.3362 10.1856C89.9215 11.3301 90.2145 12.6767 90.2145 14.2257C90.2145 15.7569 89.9215 17.0948 89.3362 18.2392C88.7506 19.3838 87.9351 20.2622 86.8901 20.8745C85.8453 21.4869 84.6561 21.7933 83.3225 21.7933C81.8092 21.7933 80.5303 21.4061 79.4854 20.6315C78.4403 19.857 77.7201 18.83 77.3244 17.5502V28.5763H75.4316V6.84759H77.3244V10.9014C77.7201 9.62282 78.4403 8.59624 79.4854 7.82165C80.5303 7.04718 81.8092 6.66016 83.3225 6.66016ZM82.8097 8.33472C81.7649 8.33472 80.823 8.57786 79.9848 9.06423C79.1479 9.55115 78.4952 10.241 78.0268 11.1326C77.5585 12.0236 77.3244 13.0545 77.3244 14.2257C77.3244 15.3971 77.5585 16.4285 78.0268 17.3204C78.4952 18.2123 79.1479 18.9015 79.9848 19.3875C80.823 19.8739 81.7649 20.1168 82.8097 20.1168C84.485 20.1168 85.8182 19.5899 86.8096 18.5361C87.8 17.482 88.2951 16.0452 88.2951 14.2257C88.2951 12.4065 87.8 10.9698 86.8096 9.91574C85.8182 8.86158 84.485 8.33472 82.8097 8.33472Z" fill="white"/>
<path id="Vector_4" d="M111.159 6.63281H114.726L110.699 21.6034H106.484L103.268 10.7132L99.9705 21.6034H95.7559L91.7559 6.63281H95.5665L97.9991 18.1986L101.322 6.63281H105.348L108.7 18.1986L111.159 6.63281Z" fill="white"/>
<path id="Vector_5" d="M120.428 9.49543C120.986 8.54107 121.724 7.78902 122.643 7.23897C123.562 6.69022 124.59 6.41602 125.724 6.41602V10.4962H124.616C121.824 10.4962 120.428 11.7933 120.428 14.3871V21.6027H116.617V6.63212H120.428V9.49543Z" fill="white"/>
<path id="Vector_6" d="M127.4 2.3342C127.4 1.72189 127.617 1.22228 128.049 0.835475C128.483 0.447909 129.049 0.253906 129.752 0.253906C130.454 0.253906 131.022 0.447909 131.454 0.835475C131.888 1.22228 132.103 1.72189 132.103 2.3342C132.103 2.9289 131.888 3.42009 131.454 3.80799C131.022 4.19566 130.454 4.38966 129.752 4.38966C129.049 4.38966 128.483 4.19566 128.049 3.80799C127.617 3.42009 127.4 2.9289 127.4 2.3342Z" fill="white"/>
<path id="Vector_7" d="M127.832 6.63281H131.642V21.6034H127.832V6.63281Z" fill="white"/>
<path id="Vector_8" d="M141.614 18.333H143.099V21.6036H141.1C139.424 21.6036 138.14 21.1986 137.248 20.3882C136.357 19.5768 135.911 18.2258 135.911 16.3345V9.84833H133.83V6.63302H135.911V2.92969H139.721V6.63302H143.073V9.84833H139.721V16.3882C139.721 17.109 139.866 17.6138 140.153 17.902C140.442 18.1893 140.929 18.333 141.614 18.333Z" fill="white"/>
<path id="Vector_9" fill-rule="evenodd" clip-rule="evenodd" d="M159.909 13.5498C159.909 13.9285 159.865 14.3611 159.775 14.8472H148.802C148.856 16.1804 149.216 17.1625 149.883 17.7929C150.55 18.4232 151.378 18.7385 152.37 18.7385C153.253 18.7385 153.987 18.5223 154.571 18.0896C155.156 17.6582 155.531 17.0732 155.693 16.3343H159.719C159.521 17.3793 159.099 18.3158 158.45 19.1442C157.801 19.9735 156.967 20.6223 155.951 21.0905C154.932 21.5587 153.802 21.7928 152.56 21.7928C151.1 21.7928 149.803 21.4822 148.667 20.8608C147.532 20.2393 146.65 19.3519 146.02 18.1986C145.388 17.0453 145.072 15.6849 145.072 14.118C145.072 12.5501 145.388 11.1854 146.02 10.0242C146.65 8.86177 147.532 7.97415 148.667 7.36205C149.803 6.74963 151.1 6.44336 152.56 6.44336C154.036 6.44336 155.328 6.74963 156.437 7.36205C157.544 7.97415 158.4 8.81658 159.004 9.88846C159.607 10.9601 159.909 12.1806 159.909 13.5498ZM156.071 13.1727C156.126 11.9465 155.806 11.0181 155.113 10.3881C154.418 9.75748 153.568 9.44246 152.56 9.44246C151.532 9.44246 150.667 9.75748 149.964 10.3881C149.261 11.0181 148.874 11.9465 148.802 13.1727H156.071Z" fill="white"/>
<path id="Vector_10" d="M10.8508 12.3492C11.03 11.5728 11.1969 10.9185 11.2098 10.8864C11.2225 10.8608 11.4407 10.8418 11.6908 10.8418C12.0245 10.8418 12.1337 10.8608 12.1145 10.9185C12.0952 10.9636 11.9989 11.3481 11.9027 11.7714C11.8137 12.1625 11.5938 13.0893 11.399 13.9107L11.351 14.113C11.2597 14.4986 11.1581 14.9315 11.0633 15.3354C10.9452 15.8384 10.8376 16.2966 10.7735 16.5634L10.5749 17.4488H10.1319C9.88849 17.4488 9.68945 17.4229 9.68945 17.3909C9.68945 17.2756 9.88191 16.4032 10.2029 15.0753C10.3533 14.4206 10.6087 13.3575 10.794 12.586L10.8508 12.3492Z" fill="white"/>
<path id="Vector_11" d="M7.17578 14.3064L7.7659 13.6647L8.36278 13.0234H8.89532C9.19032 13.0234 9.434 13.0426 9.434 13.0684C9.434 13.1004 9.20301 13.3702 8.92092 13.6842C8.63841 13.9924 8.40742 14.2808 8.40742 14.3258C8.40742 14.3641 8.65755 14.6723 8.95923 14.9927L9.51115 15.5891H8.34351L7.93286 15.1533C7.70856 14.9158 7.44518 14.627 7.34921 14.5117L7.17578 14.3064Z" fill="white"/>
<path id="Vector_12" d="M12.498 13.3377C12.3633 13.2029 12.2542 13.0813 12.2542 13.062C12.2542 13.0426 12.5044 13.0234 12.8188 13.0234H13.3773L13.9541 13.6458C14.2751 13.9857 14.5316 14.2872 14.5316 14.3192C14.5316 14.3575 14.2879 14.6529 13.9861 14.9862L13.4409 15.5829L12.8445 15.5891H12.248L12.7804 15.0055C13.0754 14.6912 13.3194 14.39 13.332 14.3447C13.3513 14.2616 12.9987 13.8381 12.498 13.3377Z" fill="white"/>
<path id="Vector_13" fill-rule="evenodd" clip-rule="evenodd" d="M16.3788 24.0887C17.9841 25.02 19.849 25.5533 21.8385 25.5533C27.8569 25.5533 32.7356 20.6745 32.7356 14.6562C32.7356 8.63801 27.8569 3.75929 21.8385 3.75929C19.8501 3.75929 17.9863 4.29191 16.3814 5.22215C9.77861 1.3512 1.07706 5.43091 0.0988407 13.3087C-0.381516 17.1776 1.24141 21.0083 4.35474 23.3545C8.11348 26.1909 12.8046 26.1462 16.3788 24.0887ZM18.9451 18.485C18.3183 19.7989 17.3783 20.9348 16.2216 21.7958C15.6703 22.2011 15.0574 22.5524 14.3848 22.8375C11.4621 24.0759 8.10053 23.6609 5.56669 21.7486C0.107042 17.6285 1.15465 9.14332 7.45265 6.4751C9.75457 5.49991 12.3288 5.55014 14.5563 6.54966L14.5529 6.55268C17.5594 7.90089 19.6799 10.8711 19.8009 14.3497C19.8457 15.7696 19.5549 17.1931 18.9451 18.485Z" fill="white"/>
</g>
<defs>
<clipPath id="clip0_90_62">
<rect width="159.972" height="28.3398" fill="white" transform="translate(0.015625 0.253906)"/>
</clipPath>
</defs>
</svg>
