<svg width="200" height="35" viewBox="0 0 200 35" fill="none" xmlns="http://www.w3.org/2000/svg">
<g id="digitalocean-logo.43bef5fe.svg" clip-path="url(#clip0_90_42)">
<path id="Vector" d="M17.0916 28.0055V34.5938C28.2189 34.5938 36.8781 23.8424 33.2364 12.1617C31.6178 7.06894 27.5715 2.9867 22.4732 1.41038C10.8198 -2.22725 0.0566406 6.46266 0.0566406 17.5777H6.65213C6.65213 10.6257 13.5713 5.20969 20.9356 7.8773C23.6466 8.84734 25.8316 11.0299 26.8028 13.7379C29.4733 21.0941 24.0918 28.0055 17.0916 28.0055Z" fill="white"/>
<path id="Vector_2" d="M10.5352 28.0458H17.0901V21.498H10.5352V28.0458Z" fill="white"/>
<path id="Vector_3" d="M10.5344 33.1011H5.47656V28.0491L10.5344 28.0488V33.1011Z" fill="white"/>
<path id="Vector_4" d="M1.23047 28.0492H5.43863V23.8457H1.23047V28.0492Z" fill="white"/>
<path id="Vector_5" fill-rule="evenodd" clip-rule="evenodd" d="M60.054 10.4322C58.1317 9.11827 55.7287 8.44141 52.9253 8.44141H46.8379V27.712H52.9253C55.7287 27.712 58.1317 26.9954 60.054 25.6018C61.0952 24.8453 61.9362 23.8102 62.497 22.4962C63.0576 21.1823 63.378 19.6693 63.378 17.9573C63.378 16.2452 63.0977 14.7322 62.497 13.4581C61.9362 12.1443 61.1353 11.109 60.054 10.4322ZM50.4455 11.6685H52.3279C54.4504 11.6685 56.2126 12.0667 57.5342 12.9028C59.016 13.7787 59.7769 15.4908 59.7769 17.9194C59.7769 20.4278 59.016 22.1797 57.5342 23.1353C56.2526 23.9715 54.5306 24.4094 52.3679 24.4094H50.4455V11.6685Z" fill="white"/>
<path id="Vector_6" d="M66.1799 8.75935C66.5804 8.36119 67.061 8.16211 67.6617 8.16211C68.2223 8.16211 68.743 8.40101 69.1835 8.75935C69.584 9.1575 69.7842 9.63528 69.7842 10.2325C69.7842 10.8297 69.584 11.3473 69.1835 11.7455C68.743 12.1437 68.2624 12.3427 67.6617 12.3427C67.061 12.3427 66.5403 12.1437 66.1398 11.7455C65.7394 11.3076 65.5391 10.8297 65.5391 10.2325C65.5391 9.63528 65.7794 9.1575 66.1799 8.75935Z" fill="white"/>
<path id="Vector_7" d="M65.9004 14.0938H69.3446V27.6707H65.9004V14.0938Z" fill="white"/>
<path id="Vector_8" fill-rule="evenodd" clip-rule="evenodd" d="M78.3521 13.8145C79.5937 13.8145 80.755 14.332 81.7964 15.2478V14.0932H85.1604V26.436C85.1604 28.4665 84.5196 30.1388 83.3182 31.3731C82.1167 32.6073 80.4748 33.2444 78.4322 33.2444C76.9505 33.2444 75.6289 32.8861 74.6276 32.249C73.6264 31.6119 72.8654 30.935 72.3449 30.2184L72.2647 30.1388L74.5876 27.9091C75.8291 29.5017 76.7903 30.1388 78.3922 30.1388C79.3934 30.1388 80.2344 29.8202 80.8352 29.223C81.3959 28.6258 81.7162 27.7498 81.7162 26.635V26.3165C80.7551 27.0332 79.6337 27.3915 78.3121 27.3915C76.4298 27.3915 74.8279 26.7545 73.6264 25.4803C72.4249 24.1665 71.8242 22.534 71.8242 20.6229C71.8242 18.6719 72.4249 17.0396 73.6665 15.7655C74.8679 14.4515 76.4699 13.8145 78.3521 13.8145ZM78.5127 24.2471C79.5139 24.2471 80.2748 23.9287 80.8755 23.2517C81.4762 22.5749 81.7967 21.699 81.7566 20.5842C81.7566 19.5091 81.4762 18.5934 80.8755 17.9165C80.2748 17.2397 79.5139 16.9211 78.5127 16.9211C77.5515 16.9211 76.7906 17.2397 76.1899 17.9165C75.5891 18.5934 75.3087 19.4693 75.3087 20.5842C75.3087 21.699 75.5891 22.5749 76.1899 23.2517C76.7506 23.9287 77.5115 24.2471 78.5127 24.2471Z" fill="white"/>
<path id="Vector_9" d="M88.0879 14.0938H91.532V27.6707H88.0879V14.0938Z" fill="white"/>
<path id="Vector_10" d="M88.3674 8.75935C88.7679 8.36119 89.2485 8.16211 89.8492 8.16211C90.4499 8.16211 90.9305 8.40101 91.371 8.75935C91.7715 9.1575 91.9717 9.63528 91.9717 10.2325C91.9717 10.8297 91.7715 11.3473 91.371 11.7455C90.9305 12.1437 90.4499 12.3427 89.8492 12.3427C89.2485 12.3427 88.7278 12.1437 88.3273 11.7455C87.9269 11.3076 87.7266 10.8297 87.7266 10.2325C87.7266 9.63528 87.9669 9.1575 88.3674 8.75935Z" fill="white"/>
<path id="Vector_11" d="M99.0589 10.4297H95.6947V14.0927H93.7324V17.1983H95.6947V22.8123C95.6947 24.5641 96.0553 25.8382 96.7361 26.5549C97.4569 27.2716 98.6985 27.6697 100.42 27.6697C100.981 27.6697 101.542 27.6697 102.103 27.6299H102.263V24.5243L101.101 24.6039C100.3 24.6039 99.7397 24.4446 99.4593 24.166C99.179 23.8873 99.0589 23.2901 99.0589 22.3743V17.2382H102.263V14.1326H99.0589V10.4297Z" fill="white"/>
<path id="Vector_12" d="M121.808 8.39844H118.363V27.669H121.808V8.39844Z" fill="white"/>
<path id="Vector_13" d="M156.449 22.8128C155.849 23.4897 155.209 24.0869 154.728 24.4054C154.247 24.7239 153.647 24.8434 152.965 24.8434C151.965 24.8434 151.123 24.4849 150.482 23.7285C149.841 22.972 149.481 22.0164 149.481 20.8618C149.481 19.7072 149.801 18.7516 150.442 17.9951C151.083 17.2386 151.924 16.8803 152.926 16.8803C154.046 16.8803 155.209 17.5571 156.209 18.7516L158.492 16.6016C157.011 14.6905 155.128 13.8145 152.885 13.8145C151.003 13.8145 149.361 14.4913 148.039 15.8451C146.718 17.1988 146.037 18.8711 146.037 20.9016C146.037 22.9322 146.718 24.6442 148.039 25.9582C149.361 27.3119 151.003 27.9887 152.885 27.9887C155.368 27.9887 157.371 26.9137 158.732 24.9628L156.449 22.8128Z" fill="white"/>
<path id="Vector_14" fill-rule="evenodd" clip-rule="evenodd" d="M168.586 14.3746C169.386 14.7727 170.068 15.3301 170.549 16.0069C171.029 16.6838 171.39 17.4005 171.71 18.2366C171.95 19.0329 172.07 19.869 172.07 20.745L172.03 21.9792H162.939C163.019 22.8552 163.34 23.5321 163.9 24.0497C164.501 24.6071 165.262 24.8858 166.223 24.8858C166.863 24.8858 167.425 24.7265 167.945 24.4876C168.305 24.3283 168.626 24.0895 168.946 23.771C169.066 23.6318 169.207 23.4926 169.342 23.3583C169.477 23.2241 169.608 23.094 169.707 22.9746L171.95 25.1247L171.87 25.2043C170.428 27.0359 168.545 27.9516 166.223 27.9516C164.181 27.9516 162.499 27.2748 161.257 26.0006C160.015 24.6867 159.375 23.0145 159.375 20.9441C159.375 18.9533 159.935 17.2412 161.096 15.8477C162.258 14.494 163.82 13.7773 165.743 13.7773C166.824 13.7773 167.785 13.9764 168.586 14.3746ZM163.939 17.5982C163.54 17.9964 163.219 18.5538 163.059 19.1908V19.2307H168.346C168.305 18.5936 168.065 18.076 167.664 17.638C167.224 17.1602 166.583 16.9213 165.742 16.9213C165.021 16.9213 164.42 17.1602 163.939 17.5982Z" fill="white"/>
<path id="Vector_15" fill-rule="evenodd" clip-rule="evenodd" d="M183.726 15.1284C182.685 14.2525 181.243 13.8145 179.441 13.8145C178.28 13.8145 177.238 14.0534 176.277 14.5312C175.396 14.9691 174.515 15.7256 173.955 16.721L173.994 16.7608L176.197 18.8711C177.118 17.4376 178.119 16.92 179.441 16.92C180.162 16.92 180.762 17.1192 181.203 17.4775C181.644 17.8358 181.884 18.3136 181.884 18.9507V19.6276C181.043 19.3887 180.202 19.2294 179.361 19.2294C177.639 19.2294 176.277 19.6276 175.236 20.4238C174.195 21.2202 173.674 22.3748 173.674 23.8081C173.674 25.0823 174.114 26.1174 174.995 26.8739C175.877 27.6304 176.997 27.9887 178.319 27.9887C179.641 27.9887 180.842 27.4711 181.964 26.5554V27.6702H185.328V18.9507C185.288 17.2785 184.768 16.0043 183.726 15.1284ZM177.637 22.4943C178.036 22.2155 178.557 22.0961 179.278 22.0961C180.119 22.0961 181.001 22.2553 181.881 22.5739V23.8877C181.121 24.5646 180.119 24.923 178.918 24.923C178.317 24.923 177.877 24.8035 177.556 24.5248C177.236 24.2859 177.075 23.9674 177.075 23.5294C177.075 23.0915 177.236 22.7332 177.637 22.4943Z" fill="white"/>
<path id="Vector_16" d="M194.498 13.7734C196.219 13.7734 197.541 14.291 198.502 15.3661C199.463 16.441 199.944 17.9142 199.944 19.7855V27.6292H196.5V19.7855C196.5 18.8697 196.3 18.1531 195.859 17.6355C195.419 17.1179 194.818 16.879 194.057 16.879C193.176 16.879 192.495 17.1577 192.014 17.7549C191.534 18.3521 191.293 19.1485 191.293 20.1837V27.6689H187.85V14.0919H191.214V14.928C192.014 14.1715 193.136 13.7734 194.498 13.7734Z" fill="white"/>
<path id="Vector_17" fill-rule="evenodd" clip-rule="evenodd" d="M114.044 15.1284C113.003 14.2525 111.561 13.8145 109.759 13.8145C108.598 13.8145 107.556 14.0534 106.595 14.5312C105.714 14.9691 104.833 15.7256 104.273 16.721L104.313 16.7608L106.515 18.8711C107.436 17.4376 108.438 16.92 109.759 16.92C110.48 16.92 111.081 17.1192 111.521 17.4775C111.962 17.8358 112.203 18.3136 112.203 18.9507V19.6276C111.362 19.3887 110.521 19.2294 109.68 19.2294C107.957 19.2294 106.595 19.6276 105.554 20.4238C104.513 21.2202 103.992 22.3748 103.992 23.8081C103.992 25.0823 104.433 26.1174 105.314 26.8739C106.195 27.6304 107.316 27.9887 108.638 27.9887C109.959 27.9887 111.161 27.4711 112.282 26.5554V27.6702H115.646V18.9507C115.606 17.2785 115.086 16.0043 114.044 15.1284ZM107.954 22.4943C108.355 22.2155 108.876 22.0961 109.597 22.0961C110.438 22.0961 111.318 22.2553 112.199 22.5739V23.8877C111.438 24.5646 110.438 24.923 109.236 24.923C108.635 24.923 108.194 24.8035 107.874 24.5248C107.554 24.2859 107.394 23.9674 107.394 23.5294C107.394 23.0915 107.554 22.7332 107.954 22.4943Z" fill="white"/>
<path id="Vector_18" fill-rule="evenodd" clip-rule="evenodd" d="M124.254 18.0351C124.254 23.4898 128.739 27.9491 134.226 27.9491C139.753 27.9491 144.198 23.4898 144.198 18.0351C144.198 12.5804 139.712 8.12109 134.226 8.12109C128.739 8.12109 124.254 12.5804 124.254 18.0351ZM127.775 17.9952C127.775 14.4516 130.659 11.5849 134.223 11.5849C137.788 11.5849 140.671 14.4516 140.671 17.9952C140.671 21.5387 137.788 24.4055 134.223 24.4055C130.659 24.4055 127.775 21.5387 127.775 17.9952Z" fill="white"/>
</g>
<defs>
<clipPath id="clip0_90_42">
<rect width="199.888" height="34.0234" fill="white" transform="translate(0.0566406 0.570312)"/>
</clipPath>
</defs>
</svg>
