<svg width="140" height="37" viewBox="0 0 140 37" fill="none" xmlns="http://www.w3.org/2000/svg">
<g id="docker-logo.6d5d5991.svg" clip-path="url(#clip0_90_77)">
<path id="Vector" d="M23.1029 4.7504H27.5273C27.7369 4.7504 27.9232 4.5874 27.9232 4.35454V0.395869C27.9232 0.186295 27.7369 0 27.5273 0H23.1029C22.8933 0 22.707 0.163007 22.707 0.395869V4.35454C22.707 4.56411 22.8933 4.7504 23.1029 4.7504Z" fill="white"/>
<path id="Vector_2" d="M15.1874 10.432H10.7631C10.5535 10.432 10.3905 10.2458 10.3672 10.0362V6.07751C10.3672 5.84464 10.5535 5.68164 10.7631 5.68164H15.1874C15.4203 5.68164 15.5833 5.86793 15.5833 6.07751V10.0362C15.5833 10.2458 15.397 10.432 15.1874 10.432Z" fill="white"/>
<path id="Vector_3" d="M49.7447 13.6226C49.6049 13.5062 48.3475 12.5514 45.6463 12.5514C44.9477 12.5514 44.2258 12.6213 43.5272 12.7377C43.0489 9.41129 40.4392 7.68848 40.0003 7.39873C39.9691 7.37814 39.9488 7.36478 39.9411 7.35861L39.2192 6.93945L38.7535 7.61476C38.1714 8.52292 37.7289 9.54752 37.4728 10.5954C36.9838 12.6213 37.2865 14.5308 38.3111 16.1608C37.0769 16.8594 35.0743 17.0224 34.6551 17.0457H1.58862C0.727018 17.0457 0.0284303 17.7443 0.0284303 18.6059C-0.0181452 21.4934 0.470862 24.3809 1.47218 27.1054C2.6132 30.086 4.3131 32.2982 6.50201 33.6488C8.97035 35.1624 12.9989 36.024 17.5397 36.024C19.5889 36.024 21.6381 35.8377 23.664 35.4652C26.4816 34.9529 29.1829 33.9748 31.6745 32.5544C33.7237 31.3668 35.5633 29.8532 37.1235 28.0834C39.7548 25.126 41.315 21.8194 42.456 18.8853H42.9218C45.786 18.8853 47.5557 17.7443 48.5338 16.7663C49.1858 16.1608 49.6748 15.4157 50.0241 14.5774L50.2337 13.9719L49.7447 13.6226Z" fill="white"/>
<path id="Vector_4" fill-rule="evenodd" clip-rule="evenodd" d="M64.3447 11.7834C64.3679 11.0615 64.9734 10.4793 65.7185 10.5026C66.0911 10.5026 66.4404 10.6423 66.7199 10.8985C66.976 11.1546 67.1157 11.5039 67.1157 11.8765V24.5443C67.0459 28.6426 63.6693 31.9027 59.571 31.8329C55.4726 31.763 52.2125 28.3865 52.2824 24.2881C52.2824 22.5882 52.8645 20.9582 53.9124 19.6309C56.4739 16.4406 61.1544 15.9283 64.3447 18.4898V11.7834ZM61.5037 28.5728C62.6215 28.0838 63.5063 27.1989 63.9721 26.0812C64.4611 24.9401 64.4611 23.6361 63.9721 22.5184C63.5063 21.4006 62.6215 20.5157 61.5037 20.0267C60.3394 19.5377 59.0354 19.5377 57.8711 20.0267C56.7766 20.4924 55.8917 21.3773 55.426 22.4951C54.937 23.6594 54.937 24.9634 55.426 26.1044C55.8917 27.1989 56.7533 28.1071 57.8711 28.5728C59.0354 29.0618 60.3394 29.0618 61.5037 28.5728Z" fill="white"/>
<path id="Vector_5" fill-rule="evenodd" clip-rule="evenodd" d="M70.7234 19.0484C73.6109 16.1609 78.3147 16.1609 81.2022 19.0484C81.9008 19.7237 82.4597 20.5388 82.8322 21.4469C83.2048 22.3551 83.3911 23.3098 83.3911 24.2879V24.544C83.3213 28.6424 79.9447 31.9025 75.8464 31.8326C71.748 31.7628 68.4879 28.3862 68.5577 24.2879C68.5577 22.3318 69.3262 20.4456 70.7234 19.0484ZM79.2462 27.5246C79.6653 27.1055 80.0146 26.6165 80.2475 26.0576C80.7365 24.9399 80.7365 23.6358 80.2475 22.4482C80.0146 21.9127 79.6653 21.4004 79.2462 20.9812C78.827 20.562 78.338 20.2128 77.7791 19.9799C76.6148 19.4909 75.3108 19.4909 74.1465 19.9799C73.0287 20.4689 72.1438 21.3305 71.6781 22.4482C71.1891 23.6125 71.1891 24.9166 71.6781 26.0576C72.1438 27.1521 73.0287 28.0602 74.1465 28.526C75.3108 29.015 76.6148 29.015 77.7791 28.526C78.3147 28.2931 78.827 27.9438 79.2462 27.5246Z" fill="white"/>
<path id="Vector_6" d="M111.872 18.233C111.872 18.0467 111.825 17.8604 111.755 17.6974C111.685 17.5344 111.569 17.3947 111.453 17.255C111.336 17.1386 111.173 17.0221 111.01 16.9523C110.847 16.8824 110.661 16.8358 110.475 16.8358C110.218 16.8358 109.962 16.9057 109.729 17.0454L101.812 22.1917V11.8991C101.812 11.5265 101.672 11.1773 101.416 10.9211C101.16 10.665 100.811 10.502 100.438 10.502C99.6697 10.502 99.0643 11.1074 99.041 11.8758V30.2953C99.041 30.6679 99.1807 31.0172 99.4369 31.2733C99.693 31.5528 100.042 31.6925 100.415 31.6925C100.787 31.6925 101.137 31.5528 101.393 31.2733C101.649 31.0172 101.812 30.6679 101.789 30.2953V25.5216L103.396 24.4737L109.52 31.3432C109.776 31.576 110.102 31.7158 110.451 31.6925C110.638 31.6925 110.824 31.6692 110.987 31.576C111.15 31.5062 111.29 31.413 111.429 31.2733C111.546 31.1336 111.662 30.9939 111.732 30.8309C111.802 30.6679 111.848 30.4816 111.848 30.2953C111.848 29.946 111.709 29.5967 111.476 29.3406L105.794 22.9368L111.336 19.3275C111.709 19.0946 111.895 18.6754 111.872 18.233Z" fill="white"/>
<path id="Vector_7" d="M90.3776 19.9798C89.8188 20.2127 89.3065 20.562 88.8873 20.9811C87.071 22.7742 87.071 25.7082 88.8873 27.5246C89.3297 27.9437 89.8188 28.293 90.3776 28.5259C90.9598 28.782 91.5652 28.8985 92.194 28.8985C92.7295 28.8985 93.2884 28.8053 93.8007 28.619C94.313 28.4095 94.7787 28.13 95.1979 27.7574C95.454 27.5711 95.7568 27.478 96.0828 27.478H96.1759C96.8978 27.5013 97.4799 28.1067 97.4567 28.8519C97.4567 29.2478 97.2937 29.6203 97.0142 29.8765C95.6636 31.0408 93.9404 31.6695 92.1474 31.6695C88.0723 31.6462 84.7656 28.3396 84.7656 24.2412C84.7656 20.1428 88.0956 16.8129 92.194 16.8129C93.987 16.7663 95.7102 17.4183 97.0375 18.6059C97.3635 18.8621 97.5265 19.2579 97.5265 19.6538C97.5265 20.0264 97.3868 20.399 97.1306 20.6551C96.8745 20.9346 96.5019 21.0743 96.1293 21.051C95.8033 21.051 95.4773 20.9578 95.2212 20.7483C94.802 20.3757 94.313 20.0962 93.8007 19.8866C93.2884 19.7004 92.7528 19.6072 92.194 19.6072C91.5652 19.6072 90.9598 19.747 90.3776 19.9798Z" fill="white"/>
<path id="Vector_8" d="M139.371 17.791C139.092 17.5348 138.789 17.3485 138.439 17.2321C138.044 17.0924 137.624 16.9992 137.205 16.9527C136.786 16.9061 136.367 16.8828 135.948 16.8828C135.11 16.8828 134.248 17.0225 133.456 17.3253C132.664 17.6047 131.943 18.0238 131.291 18.5361V18.2567C131.267 17.4883 130.615 16.9061 129.847 16.9294C129.125 16.9527 128.543 17.5348 128.52 18.2567V30.3423C128.543 31.1107 129.195 31.6929 129.963 31.6696C130.685 31.6463 131.267 31.0642 131.291 30.3423V24.3111C131.291 23.6824 131.407 23.077 131.663 22.4948C131.896 21.9359 132.222 21.4469 132.664 21.0278C133.084 20.6086 133.596 20.2593 134.132 20.0265C134.714 19.7936 135.319 19.6539 135.948 19.6539C136.577 19.6539 137.182 19.7703 137.764 19.9799C137.95 20.073 138.137 20.1196 138.346 20.1196C138.533 20.1196 138.719 20.0963 138.882 20.0032C139.045 19.9333 139.185 19.8402 139.324 19.7005C139.441 19.584 139.557 19.421 139.627 19.258C139.697 19.095 139.744 18.9087 139.744 18.7224C139.767 18.3731 139.627 18.0471 139.371 17.791Z" fill="white"/>
<path id="Vector_9" fill-rule="evenodd" clip-rule="evenodd" d="M119.651 16.8828C122.632 16.9061 125.333 18.6991 126.52 21.4469C126.87 22.3551 127.056 23.3331 127.033 24.3344C127.056 24.707 126.916 25.0563 126.637 25.3124C126.381 25.5686 126.031 25.7083 125.659 25.7083H115.18C115.32 26.174 115.529 26.6398 115.832 27.0356C116.111 27.4315 116.461 27.7808 116.857 28.0602C117.253 28.363 117.695 28.5725 118.161 28.7355C118.65 28.8985 119.139 28.9684 119.651 28.9684C120.21 28.9917 120.745 28.8985 121.258 28.7122C121.747 28.5492 122.189 28.2698 122.585 27.9438L122.608 27.9205C122.608 27.9042 122.676 27.8427 122.733 27.7913C122.758 27.7689 122.78 27.7484 122.795 27.7342C123.26 27.2918 123.959 27.2219 124.495 27.5712C125.123 28.0137 125.286 28.8753 124.844 29.5273C124.774 29.667 124.658 29.7834 124.541 29.8766L124.495 29.9231C123.144 31.0874 121.421 31.7162 119.651 31.7162C115.553 31.7162 112.223 28.3862 112.223 24.2879C112.246 20.1895 115.553 16.8828 119.651 16.8828ZM115.832 21.6099C115.529 22.0058 115.32 22.4482 115.18 22.9372H124.099C123.936 22.4715 123.726 22.0058 123.423 21.6099C122.841 20.8182 122.026 20.2128 121.095 19.91C120.629 19.747 120.117 19.6772 119.628 19.6772C119.139 19.6772 118.626 19.747 118.161 19.91C117.695 20.073 117.253 20.3059 116.857 20.5853C116.461 20.8648 116.111 21.2141 115.832 21.6099Z" fill="white"/>
<path id="Vector_10" fill-rule="evenodd" clip-rule="evenodd" d="M135.065 30.4357C135.065 30.5521 134.995 30.6453 134.879 30.6685C134.972 30.7151 135.042 30.8083 135.019 30.9014C135.019 30.9713 135.042 31.0644 135.088 31.1343H134.856C134.844 31.0993 134.832 31.0586 134.821 31.0178C134.809 30.9771 134.797 30.9363 134.786 30.9014C134.762 30.8083 134.693 30.7617 134.576 30.7617H134.483V31.1343H134.273V30.1795C134.39 30.1563 134.53 30.1562 134.646 30.1562C134.762 30.1562 134.879 30.1795 134.972 30.2261C135.042 30.2727 135.065 30.3425 135.065 30.4357ZM134.483 30.5987H134.599C134.716 30.622 134.832 30.5521 134.809 30.459C134.809 30.3891 134.739 30.3193 134.599 30.3193H134.483V30.5987Z" fill="white"/>
<path id="Vector_11" fill-rule="evenodd" clip-rule="evenodd" d="M134.646 29.6895C134.111 29.6895 133.691 30.1319 133.691 30.6675C133.691 31.2031 134.134 31.6222 134.669 31.6222C135.205 31.6222 135.624 31.1798 135.624 30.6675C135.624 30.1086 135.182 29.6895 134.646 29.6895ZM134.646 31.4126C134.227 31.4359 133.878 31.1099 133.854 30.6908C133.831 30.2716 134.157 29.9223 134.576 29.899C134.995 29.8757 135.345 30.2018 135.368 30.6209V30.6675C135.391 31.0633 135.065 31.4126 134.646 31.4126Z" fill="white"/>
<path id="Vector_12" d="M9.08589 16.0902H4.66149C4.45192 16.0902 4.28891 15.9272 4.26562 15.6944V11.7357C4.26562 11.5028 4.45192 11.3398 4.66149 11.3398H9.08589C9.31875 11.3398 9.48175 11.5261 9.48175 11.7357V15.6944C9.48175 15.9272 9.29546 16.0902 9.08589 16.0902Z" fill="white"/>
<path id="Vector_13" d="M10.7631 16.0902H15.1874C15.397 16.0902 15.5833 15.9272 15.5833 15.6944V11.7357C15.5833 11.5261 15.4203 11.3398 15.1874 11.3398H10.7631C10.5535 11.3398 10.3672 11.5028 10.3672 11.7357V15.6944C10.3905 15.9272 10.5535 16.0902 10.7631 16.0902Z" fill="white"/>
<path id="Vector_14" d="M21.4042 16.0902H16.9799C16.747 16.0902 16.584 15.9272 16.584 15.6944V11.7357C16.584 11.5028 16.7703 11.3398 16.9799 11.3398H21.4042C21.6371 11.3398 21.8001 11.5261 21.8001 11.7357V15.6944C21.8001 15.9272 21.6138 16.0902 21.4042 16.0902Z" fill="white"/>
<path id="Vector_15" d="M23.1029 16.0902H27.5273C27.7369 16.0902 27.9232 15.9272 27.9232 15.6944V11.7357C27.9232 11.5261 27.7602 11.3398 27.5273 11.3398H23.1029C22.8933 11.3398 22.707 11.5028 22.707 11.7357V15.6944C22.707 15.9272 22.8933 16.0902 23.1029 16.0902Z" fill="white"/>
<path id="Vector_16" d="M16.9799 10.432H21.4042C21.6138 10.432 21.8001 10.2458 21.8001 10.0362V6.07751C21.8001 5.86793 21.6371 5.68164 21.4042 5.68164H16.9799C16.7703 5.68164 16.584 5.84464 16.584 6.07751V10.0362C16.584 10.2458 16.747 10.432 16.9799 10.432Z" fill="white"/>
<path id="Vector_17" d="M27.5273 10.432H23.1029C22.8933 10.432 22.707 10.2458 22.707 10.0362V6.07751C22.707 5.84464 22.8933 5.68164 23.1029 5.68164H27.5273C27.7369 5.68164 27.9232 5.86793 27.9232 6.07751V10.0362C27.9232 10.2458 27.7369 10.432 27.5273 10.432Z" fill="white"/>
<path id="Vector_18" d="M33.6992 16.0902H29.2748C29.0652 16.0902 28.9022 15.9272 28.8789 15.6944V11.7357C28.8789 11.5028 29.0652 11.3398 29.2748 11.3398H33.6992C33.932 11.3398 34.095 11.5261 34.095 11.7357V15.6944C34.095 15.9272 33.9087 16.0902 33.6992 16.0902Z" fill="white"/>
</g>
<defs>
<clipPath id="clip0_90_77">
<rect width="139.951" height="36.0938" fill="white" transform="translate(0.0253906)"/>
</clipPath>
</defs>
</svg>
