<svg width="271" height="161" viewBox="0 0 271 161" fill="none" xmlns="http://www.w3.org/2000/svg">
<g clip-path="url(#clip0_2177_4970)">
<path d="M107.914 45.4023C111.832 45.6932 115.711 45.9808 119.705 46.2765C119.278 47.0719 118.613 47.39 118.121 47.8753C117.721 48.2706 117.62 48.555 117.949 49.0757C118.617 50.1346 118.576 50.1474 119.799 49.961C124.619 49.2203 129.432 48.4313 134.267 47.7934C135.482 47.6327 136.764 47.9557 138.011 48.0826C140.881 48.3718 143.752 48.6498 146.617 48.9841C150.417 49.426 154.239 49.6766 158.032 50.1812C159.795 50.4158 161.574 50.5363 163.346 50.7131C163.469 50.7259 163.587 50.7661 163.716 50.795C163.655 51.1485 163.362 51.1325 163.166 51.2096C155.735 54.118 148.301 57.0184 140.865 59.9172C137.538 61.214 134.206 62.4914 130.888 63.8075C130.315 64.034 129.909 63.9344 129.462 63.5616C124.629 59.5203 119.789 55.4887 114.947 51.4587C112.707 49.5947 110.459 47.7403 108.215 45.8844C108.096 45.7848 107.948 45.7125 107.916 45.4056L107.914 45.4023Z" fill="white"/>
<path d="M137.351 47.4433C133.313 46.717 129.476 48.131 125.552 48.6501C123.578 48.9104 121.62 49.2864 119.664 49.6592C118.984 49.7893 118.595 49.611 118.3 48.9827C118.104 48.5649 118.162 48.3415 118.496 48.0491C120.885 45.9585 123.255 43.8471 125.635 41.7453C128.818 38.9365 132.003 36.1293 135.188 33.3237C136.841 31.8663 138.498 30.4104 140.155 28.9578C140.288 28.8405 140.407 28.6155 140.598 28.6879C140.855 28.7859 140.743 29.0574 140.719 29.2438C140.291 32.5701 139.851 35.8947 139.412 39.2193C139.086 41.6859 138.734 44.1492 138.447 46.619C138.362 47.3517 138.055 47.5992 137.352 47.4433H137.351Z" fill="white"/>
<path d="M121.048 94.159C120.297 94.2828 120.474 93.9228 120.553 93.6657C121.444 90.73 122.344 87.7974 123.241 84.8633C124.436 80.9521 125.63 77.041 126.829 73.1299C127.059 72.3778 127.301 71.629 127.546 70.8818C127.599 70.7179 127.602 70.4608 127.843 70.493C127.954 70.5074 128.065 70.6971 128.134 70.8304C129.506 73.4577 130.872 76.0897 132.239 78.7202C132.819 79.837 133.392 80.9569 133.978 82.0689C134.142 82.3774 134.179 82.5815 133.872 82.8772C131.054 85.5847 128.262 88.3196 125.458 91.0417C124.592 91.8821 123.704 92.6984 122.844 93.5436C122.282 94.0964 121.523 93.9807 121.051 94.159H121.048Z" fill="white"/>
<path d="M122.912 59.2539C124.617 60.6808 126.323 62.1061 128.026 63.5378C128.831 64.2143 129.646 64.878 130.419 65.5898C130.768 65.9112 131.076 65.9256 131.484 65.765C133.096 65.1302 134.722 64.5325 136.329 63.8849C136.904 63.6535 137.073 63.7323 136.988 64.383C136.623 67.1372 136.295 69.8946 135.95 72.6504C135.608 75.3805 135.262 78.1106 134.912 80.8407C134.859 81.2488 134.774 81.6537 134.533 82.1149C130.613 74.5321 126.694 66.9508 122.773 59.368L122.913 59.2539H122.912Z" fill="white"/>
</g>
<g filter="url(#filter0_f_2177_4970)">
<ellipse cx="135.71" cy="60.4355" rx="53.7097" ry="18.5" fill="#367CFF" fill-opacity="0.7"/>
</g>
<defs>
<filter id="filter0_f_2177_4970" x="0.838715" y="-39.2257" width="269.744" height="199.323" filterUnits="userSpaceOnUse" color-interpolation-filters="sRGB">
<feFlood flood-opacity="0" result="BackgroundImageFix"/>
<feBlend mode="normal" in="SourceGraphic" in2="BackgroundImageFix" result="shape"/>
<feGaussianBlur stdDeviation="40.5806" result="effect1_foregroundBlur_2177_4970"/>
</filter>
<clipPath id="clip0_2177_4970">
<rect width="55.7585" height="65.3998" fill="white" transform="translate(107.992 28.7207)"/>
</clipPath>
</defs>
</svg>
