<svg width="56" height="67" viewBox="0 0 56 67" fill="none" xmlns="http://www.w3.org/2000/svg">
<g id="TechspardhaLogo 3" clip-path="url(#clip0_2250_4314)">
<path id="Vector" d="M-0.0878906 17.4023C3.82967 17.6932 7.70866 17.9808 11.7034 18.2765C11.2759 19.0719 10.6107 19.39 10.119 19.8753C9.71886 20.2706 9.61762 20.555 9.94703 21.0757C10.6155 22.1346 10.5737 22.1474 11.7965 21.961C16.6172 21.2203 21.4298 20.4313 26.2648 19.7934C27.4796 19.6327 28.7619 19.9557 30.0089 20.0826C32.8787 20.3718 35.7502 20.6498 38.6153 20.9841C42.4155 21.426 46.2367 21.6766 50.0305 22.1812C51.7932 22.4158 53.5721 22.5363 55.3444 22.7131C55.4666 22.7259 55.5855 22.7661 55.714 22.795C55.653 23.1485 55.3605 23.1325 55.1645 23.2096C47.7327 26.118 40.2993 29.0184 32.8627 31.9172C29.5364 33.214 26.2038 34.4914 22.8856 35.8075C22.3135 36.034 21.907 35.9344 21.4603 35.5616C16.6268 31.5203 11.7869 27.4887 6.94539 23.4587C4.70541 21.5947 2.4574 19.7403 0.212594 17.8844C0.0936853 17.7848 -0.0541496 17.7125 -0.0862871 17.4056L-0.0878906 17.4023Z" fill="white"/>
<path id="Vector_2" d="M29.345 19.4433C25.3069 18.717 21.4697 20.131 17.5457 20.6501C15.5725 20.9104 13.6137 21.2864 11.6581 21.6592C10.9784 21.7893 10.5896 21.611 10.2939 20.9827C10.0979 20.5649 10.1557 20.3415 10.4899 20.0491C12.8794 17.9585 15.2495 15.8471 17.6293 13.7453C20.8125 10.9365 23.9973 8.12929 27.1821 5.32369C28.8356 3.86625 30.4923 2.41043 32.149 0.957812C32.2824 0.84051 32.4013 0.615548 32.5925 0.687857C32.8496 0.785877 32.7371 1.05744 32.713 1.24384C32.2856 4.57006 31.8453 7.89469 31.4066 11.2193C31.0804 13.6859 30.7285 16.1492 30.4409 18.619C30.3557 19.3517 30.0488 19.5992 29.3466 19.4433H29.345Z" fill="white"/>
<path id="Vector_3" d="M13.0456 66.159C12.2952 66.2828 12.4719 65.9228 12.5506 65.6657C13.4425 62.73 14.3423 59.7974 15.2389 56.8633C16.4345 52.9521 17.6284 49.041 18.8271 45.1299C19.0569 44.3778 19.2995 43.629 19.5438 42.8818C19.5968 42.7179 19.6 42.4608 19.841 42.493C19.9519 42.5074 20.0628 42.6971 20.1319 42.8304C21.5042 45.4577 22.87 48.0897 24.2374 50.7202C24.8175 51.837 25.3896 52.9569 25.9761 54.0689C26.14 54.3774 26.1769 54.5815 25.87 54.8772C23.0516 57.5847 20.2604 60.3196 17.4564 63.0417C16.5903 63.8821 15.7017 64.6984 14.8421 65.5436C14.2796 66.0964 13.5212 65.9807 13.0488 66.159H13.0456Z" fill="white"/>
<path id="Vector_4" d="M14.9097 31.2539C16.6146 32.6808 18.3211 34.1061 20.0244 35.5378C20.8294 36.2143 21.6441 36.878 22.417 37.5898C22.7657 37.9112 23.0742 37.9256 23.4823 37.765C25.094 37.1302 26.7202 36.5325 28.3271 35.8849C28.9023 35.6535 29.0711 35.7323 28.9859 36.383C28.6211 39.1372 28.2933 41.8946 27.9478 44.6504C27.6056 47.3805 27.2601 50.1106 26.9098 52.8407C26.8568 53.2488 26.7716 53.6537 26.5306 54.1149C22.6114 46.5321 18.6923 38.9508 14.7715 31.368L14.9113 31.2539H14.9097Z" fill="white"/>
</g>
<defs>
<clipPath id="clip0_2250_4314">
<rect width="55.7585" height="65.3998" fill="white" transform="translate(-0.00976562 0.720703)"/>
</clipPath>
</defs>
</svg>
