<svg width="56" height="67" viewBox="0 0 56 67" fill="none" xmlns="http://www.w3.org/2000/svg">
<g clip-path="url(#clip0_2371_3470)">
<path d="M-0.0859375 17.4023C3.83162 17.6932 7.71062 17.9808 11.7053 18.2765C11.2779 19.0719 10.6126 19.39 10.1209 19.8753C9.72081 20.2706 9.61958 20.555 9.94899 21.0757C10.6174 22.1346 10.5757 22.1474 11.7985 21.961C16.6191 21.2203 21.4317 20.4313 26.2668 19.7934C27.4816 19.6327 28.7639 19.9557 30.0108 20.0826C32.8807 20.3718 35.7522 20.6498 38.6172 20.9841C42.4175 21.426 46.2386 21.6766 50.0325 22.1812C51.7952 22.4158 53.574 22.5363 55.3464 22.7131C55.4685 22.7259 55.5874 22.7661 55.716 22.795C55.6549 23.1485 55.3625 23.1325 55.1664 23.2096C47.7346 26.118 40.3012 29.0184 32.8646 31.9172C29.5384 33.214 26.2057 34.4914 22.8875 35.8075C22.3155 36.034 21.9089 35.9344 21.4622 35.5616C16.6288 31.5203 11.7889 27.4887 6.94735 23.4587C4.70737 21.5947 2.45935 19.7403 0.214547 17.8844C0.0956385 17.7848 -0.0521965 17.7125 -0.084334 17.4056L-0.0859375 17.4023Z" fill="white"/>
<path d="M29.3509 19.4433C25.3128 18.717 21.4756 20.131 17.5516 20.6501C15.5783 20.9104 13.6196 21.2864 11.664 21.6592C10.9843 21.7893 10.5954 21.611 10.2998 20.9827C10.1037 20.5649 10.1616 20.3415 10.4958 20.0491C12.8852 17.9585 15.2554 15.8471 17.6351 13.7453C20.8184 10.9365 24.0032 8.12929 27.188 5.32369C28.8415 3.86625 30.4982 2.41043 32.1549 0.957812C32.2882 0.84051 32.4071 0.615548 32.5984 0.687857C32.8555 0.785877 32.743 1.05744 32.7189 1.24384C32.2914 4.57006 31.8512 7.89469 31.4125 11.2193C31.0863 13.6859 30.7344 16.1492 30.4468 18.619C30.3616 19.3517 30.0547 19.5992 29.3525 19.4433H29.3509Z" fill="white"/>
<path d="M13.0475 66.159C12.2971 66.2828 12.4739 65.9228 12.5526 65.6657C13.4444 62.73 14.3443 59.7974 15.2409 56.8633C16.4364 52.9521 17.6303 49.041 18.829 45.1299C19.0588 44.3778 19.3015 43.629 19.5457 42.8818C19.5987 42.7179 19.602 42.4608 19.843 42.493C19.9539 42.5074 20.0647 42.6971 20.1338 42.8304C21.5061 45.4577 22.8719 48.0897 24.2394 50.7202C24.8195 51.837 25.3915 52.9569 25.978 54.0689C26.1419 54.3774 26.1789 54.5815 25.872 54.8772C23.0535 57.5847 20.2624 60.3196 17.4584 63.0417C16.5923 63.8821 15.7037 64.6984 14.844 65.5436C14.2816 66.0964 13.5232 65.9807 13.0507 66.159H13.0475Z" fill="white"/>
<path d="M14.9116 31.2539C16.6165 32.6808 18.323 34.1061 20.0263 35.5378C20.8313 36.2143 21.646 36.878 22.4189 37.5898C22.7676 37.9112 23.0762 37.9256 23.4843 37.765C25.096 37.1302 26.7222 36.5325 28.329 35.8849C28.9043 35.6535 29.073 35.7323 28.9878 36.383C28.6231 39.1372 28.2953 41.8946 27.9498 44.6504C27.6075 47.3805 27.2621 50.1106 26.9118 52.8407C26.8587 53.2488 26.7736 53.6537 26.5325 54.1149C22.6134 46.5321 18.6942 38.9508 14.7734 31.368L14.9132 31.2539H14.9116Z" fill="white"/>
</g>
<defs>
<clipPath id="clip0_2371_3470">
<rect width="55.7585" height="65.3998" fill="white" transform="translate(-0.0078125 0.720703)"/>
</clipPath>
</defs>
</svg>
